<mxfile host="app.diagrams.net" modified="2023-08-16T14:51:39.869Z" agent="Mozilla/5.0 (X11; Linux x86_64) AppleWebKit/537.36 (KHTML, like Gecko) Chrome/114.0.0.0 Safari/537.36" version="21.6.2" etag="GsOu-4TLpPbD7jRxuX3h" type="github">
  <diagram name="Page-1" id="kIOMqbvfiEXtHnRNSIK9">
    <mxGraphModel>
      <root>
        <mxCell id="0" />
        <mxCell id="1" parent="0" />
      </root>
    </mxGraphModel>
  </diagram>
</mxfile>
